RobotoAvar2-XOPQ2.ufo
<glyph name="plus" format="2">
  <advance width="1024"/>
  <unicode hex="002B"/>
  <outline>
    <contour>
      <point x="154" y="671" type="line"/>
      <point x="154" y="678" type="line"/>
      <point x="865" y="678" type="line"/>
      <point x="865" y="671" type="line"/>
    </contour>
    <contour>
      <point x="508" y="303" type="line"/>
      <point x="508" y="1046" type="line"/>
      <point x="515" y="1046" type="line"/>
      <point x="515" y="303" type="line"/>
    </contour>
  </outline>
</glyph>
<glyph name="comma" format="2">
	<unicode hex="002C"/>
	<advance width="444"/>
	<outline>
		<contour>
			<point x="110" y="-252" type="line"/>
			<point x="163" y="-193"/>
			<point x="246" y="-39"/>
			<point x="247" y="70" type="qcurve" smooth="yes"/>
			<point x="247" y="220" type="line"/>
			<point x="254" y="220" type="line"/>
			<point x="254" y="70" type="line" smooth="yes"/>
			<point x="254" y="-40"/>
			<point x="170" y="-195"/>
			<point x="115" y="-256" type="qcurve"/>
		</contour>
	</outline>
</glyph>
<glyph name="D" format="2">
	<unicode hex="0044"/>
	<advance width="998"/>
	<outline>
		<contour>
			<point x="170" y="0" type="line"/>
			<point x="170" y="1456" type="line"/>
			<point x="417" y="1456" type="line" smooth="yes"/>
			<point x="625" y="1456"/>
			<point x="883" y="1086"/>
			<point x="883" y="774" type="qcurve" smooth="yes"/>
			<point x="883" y="682" type="line" smooth="yes"/>
			<point x="883" y="370"/>
			<point x="626" y="0"/>
			<point x="417" y="0" type="qcurve" smooth="yes"/>
		</contour>
		<contour>
			<point x="177" y="158" type="line"/>
			<point x="417" y="158" type="line" smooth="yes"/>
			<point x="625" y="158"/>
			<point x="876" y="436"/>
			<point x="876" y="682" type="qcurve" smooth="yes"/>
			<point x="876" y="774" type="line" smooth="yes"/>
			<point x="876" y="1020"/>
			<point x="625" y="1298"/>
			<point x="417" y="1298" type="qcurve" smooth="yes"/>
			<point x="177" y="1298" type="line"/>
		</contour>
	</outline>
	<anchor name="bottom" x="478" y="0"/>
	<anchor name="center" x="202" y="728"/>
	<anchor name="top" x="444" y="1456"/>
</glyph>
<glyph name="E" format="2">
	<unicode hex="0045"/>
	<advance width="846"/>
	<outline>
		<contour>
			<point x="170" y="0" type="line"/>
			<point x="170" y="1456" type="line"/>
			<point x="768" y="1456" type="line"/>
			<point x="768" y="1298" type="line"/>
			<point x="177" y="1298" type="line"/>
			<point x="177" y="158" type="line"/>
			<point x="778" y="158" type="line"/>
			<point x="778" y="0" type="line"/>
		</contour>
		<contour>
			<point x="174" y="672" type="line"/>
			<point x="174" y="830" type="line"/>
			<point x="676" y="830" type="line"/>
			<point x="676" y="672" type="line"/>
		</contour>
	</outline>
	<anchor name="bottom" x="474" y="0"/>
	<anchor name="ogonek" x="778" y="0"/>
	<anchor name="top" x="487" y="1456"/>
	<anchor name="tonos" x="-72" y="1074"/>
</glyph>
<glyph name="H" format="2">
	<unicode hex="0048"/>
	<advance width="1088"/>
	<outline>
		<contour>
			<point x="170" y="0" type="line"/>
			<point x="170" y="1456" type="line"/>
			<point x="177" y="1456" type="line"/>
			<point x="177" y="0" type="line"/>
		</contour>
		<contour>
			<point x="174" y="672" type="line"/>
			<point x="174" y="830" type="line"/>
			<point x="914" y="830" type="line"/>
			<point x="914" y="672" type="line"/>
		</contour>
		<contour>
			<point x="911" y="0" type="line"/>
			<point x="911" y="1456" type="line"/>
			<point x="918" y="1456" type="line"/>
			<point x="918" y="0" type="line"/>
		</contour>
	</outline>
	<anchor name="bottom" x="544" y="0"/>
	<anchor name="center" x="544" y="1100"/>
	<anchor name="top" x="544" y="1456"/>
	<anchor name="cy_descender" x="915" y="0"/>
	<anchor name="tonos" x="-72" y="1074"/>
</glyph>
<glyph name="I" format="2">
	<unicode hex="0049"/>
	<advance width="357"/>
	<outline>
		<contour>
			<point x="175" y="0" type="line"/>
			<point x="175" y="1456" type="line"/>
			<point x="182" y="1456" type="line"/>
			<point x="182" y="0" type="line"/>
		</contour>
	</outline>
	<anchor name="bottom" x="179" y="0"/>
	<anchor name="ogonek" x="180" y="0"/>
	<anchor name="top" x="179" y="1456"/>
	<anchor name="tonos" x="-72" y="1074"/>
	<anchor name="yu_dash" x="179" y="750"/>
</glyph>
<glyph name="O" format="2">
	<unicode hex="004F"/>
	<advance width="1086"/>
	<outline>
		<contour>
			<point x="115" y="682" type="qcurve" smooth="yes"/>
			<point x="115" y="774" type="line" smooth="yes"/>
			<point x="115" y="1110"/>
			<point x="352" y="1486"/>
			<point x="543" y="1486" type="qcurve" smooth="yes"/>
			<point x="735" y="1486"/>
			<point x="971" y="1110"/>
			<point x="971" y="774" type="qcurve" smooth="yes"/>
			<point x="971" y="682" type="line" smooth="yes"/>
			<point x="971" y="346"/>
			<point x="735" y="-30"/>
			<point x="543" y="-30" type="qcurve" smooth="yes"/>
			<point x="352" y="-30"/>
			<point x="115" y="346"/>
		</contour>
		<contour>
			<point x="122" y="682" type="line" smooth="yes"/>
			<point x="122" y="426"/>
			<point x="353" y="134"/>
			<point x="543" y="134" type="qcurve" smooth="yes"/>
			<point x="733" y="134"/>
			<point x="964" y="426"/>
			<point x="964" y="682" type="qcurve" smooth="yes"/>
			<point x="964" y="774" type="line" smooth="yes"/>
			<point x="964" y="1030"/>
			<point x="733" y="1322"/>
			<point x="543" y="1322" type="qcurve" smooth="yes"/>
			<point x="353" y="1322"/>
			<point x="122" y="1030"/>
			<point x="122" y="774" type="qcurve" smooth="yes"/>
		</contour>
	</outline>
	<anchor name="bottom" x="543" y="0"/>
	<anchor name="center" x="543" y="728"/>
	<anchor name="ogonek" x="681" y="0"/>
	<anchor name="top" x="543" y="1456"/>
	<anchor name="topright" x="680" y="1456"/>
	<anchor name="tonos" x="-3" y="1074"/>
	<anchor name="yu_dash" x="119" y="750"/>
</glyph>
<glyph name="U" format="2">
	<unicode hex="0055"/>
	<advance width="994"/>
	<outline>
		<contour>
			<point x="155" y="470" type="qcurve" smooth="yes"/>
			<point x="155" y="1456" type="line"/>
			<point x="162" y="1456" type="line"/>
			<point x="162" y="470" type="line" smooth="yes"/>
			<point x="162" y="298"/>
			<point x="347" y="134"/>
			<point x="497" y="134" type="qcurve" smooth="yes"/>
			<point x="647" y="134"/>
			<point x="832" y="298"/>
			<point x="832" y="470" type="qcurve" smooth="yes"/>
			<point x="832" y="1456" type="line"/>
			<point x="839" y="1456" type="line"/>
			<point x="839" y="470" type="line" smooth="yes"/>
			<point x="839" y="220"/>
			<point x="649" y="-30"/>
			<point x="497" y="-30" type="qcurve" smooth="yes"/>
			<point x="345" y="-30"/>
			<point x="155" y="220"/>
		</contour>
	</outline>
	<anchor name="bottom" x="497" y="0"/>
	<anchor name="ogonek" x="626" y="0"/>
	<anchor name="top" x="497" y="1456"/>
	<anchor name="topright" x="835" y="1456"/>
</glyph>
<glyph name="asciicircum" format="2">
  <advance width="789"/>
  <unicode hex="005E"/>
  <outline>
    <contour>
      <point x="25" y="720" type="line"/>
      <point x="390" y="1299" type="line"/>
      <point x="398" y="1299" type="line"/>
      <point x="764" y="720" type="line"/>
      <point x="754" y="720" type="line"/>
      <point x="394" y="1290" type="line"/>
      <point x="34" y="720" type="line"/>
    </contour>
  </outline>
</glyph>
<glyph name="c" format="2">
  <advance width="712"/>
  <unicode hex="0063"/>
  <anchor x="376" y="0" name="bottom"/>
  <anchor x="392" y="1052" name="top"/>
  <outline>
    <contour>
      <point x="85" y="510" type="qcurve" smooth="yes"/>
      <point x="85" y="542" type="line" smooth="yes"/>
      <point x="85" y="780"/>
      <point x="236" y="1082"/>
      <point x="393" y="1082" type="qcurve" smooth="yes"/>
      <point x="523" y="1082"/>
      <point x="643" y="854"/>
      <point x="643" y="715" type="qcurve" smooth="yes"/>
      <point x="643" y="710" type="line"/>
      <point x="636" y="710" type="line"/>
      <point x="636" y="715" type="line" smooth="yes"/>
      <point x="636" y="800"/>
      <point x="518" y="930"/>
      <point x="393" y="930" type="qcurve" smooth="yes"/>
      <point x="236" y="930"/>
      <point x="92" y="705"/>
      <point x="92" y="542" type="qcurve" smooth="yes"/>
      <point x="92" y="510" type="line" smooth="yes"/>
      <point x="92" y="347"/>
      <point x="238" y="122"/>
      <point x="393" y="122" type="qcurve" smooth="yes"/>
      <point x="516" y="122"/>
      <point x="636" y="252"/>
      <point x="636" y="337" type="qcurve" smooth="yes"/>
      <point x="636" y="342" type="line"/>
      <point x="643" y="342" type="line"/>
      <point x="643" y="337" type="line" smooth="yes"/>
      <point x="643" y="197"/>
      <point x="523" y="-30"/>
      <point x="392" y="-30" type="qcurve" smooth="yes"/>
      <point x="236" y="-30"/>
      <point x="85" y="272"/>
    </contour>
  </outline>
</glyph>
<glyph name="exclamdown" format="2">
	<unicode hex="00A1"/>
	<advance width="422"/>
	<outline>
		<contour>
			<point x="236" y="1135" type="qcurve" smooth="yes"/>
			<point x="236" y="1125"/>
			<point x="224" y="1111"/>
			<point x="211" y="1111" type="qcurve" smooth="yes"/>
			<point x="198" y="1111"/>
			<point x="186" y="1125"/>
			<point x="186" y="1135" type="qcurve" smooth="yes"/>
			<point x="186" y="1145"/>
			<point x="198" y="1159"/>
			<point x="211" y="1159" type="qcurve" smooth="yes"/>
			<point x="224" y="1159"/>
			<point x="236" y="1145"/>
		</contour>
		<contour>
			<point x="214" y="740" type="line"/>
			<point x="214" y="-306" type="line"/>
			<point x="207" y="-306" type="line"/>
			<point x="207" y="740" type="line"/>
		</contour>
	</outline>
</glyph>
<glyph name="copyright" format="2">
  <advance width="1012"/>
  <unicode hex="00A9"/>
  <guideline y="901" identifier="0Pjz0qKr8z"/>
  <guideline y="555" identifier="sJo8BlDiJ7"/>
  <outline>
    <contour>
      <point x="704" y="546" type="qcurve"/>
      <point x="711" y="546" type="line"/>
      <point x="711" y="375"/>
      <point x="615" y="205"/>
      <point x="503" y="205" type="qcurve" smooth="yes"/>
      <point x="399" y="205"/>
      <point x="279" y="437"/>
      <point x="279" y="664" type="qcurve" smooth="yes"/>
      <point x="279" y="703" type="line" smooth="yes"/>
      <point x="279" y="931"/>
      <point x="390" y="1170"/>
      <point x="504" y="1170" type="qcurve" smooth="yes"/>
      <point x="608" y="1170"/>
      <point x="712" y="983"/>
      <point x="712" y="829" type="qcurve"/>
      <point x="705" y="829" type="line"/>
      <point x="705" y="914"/>
      <point x="602" y="1006"/>
      <point x="504" y="1006" type="qcurve" smooth="yes"/>
      <point x="396" y="1006"/>
      <point x="286" y="868"/>
      <point x="286" y="703" type="qcurve" smooth="yes"/>
      <point x="286" y="664" type="line" smooth="yes"/>
      <point x="286" y="499"/>
      <point x="405" y="362"/>
      <point x="503" y="362" type="qcurve" smooth="yes"/>
      <point x="612" y="362"/>
      <point x="704" y="457"/>
    </contour>
    <contour>
      <point x="45" y="687" type="qcurve" smooth="yes"/>
      <point x="45" y="400"/>
      <point x="274" y="4"/>
      <point x="501" y="4" type="qcurve" smooth="yes"/>
      <point x="725" y="4"/>
      <point x="967" y="400"/>
      <point x="967" y="687" type="qcurve" smooth="yes"/>
      <point x="967" y="975"/>
      <point x="726" y="1367"/>
      <point x="501" y="1367" type="qcurve" smooth="yes"/>
      <point x="275" y="1367"/>
      <point x="45" y="975"/>
    </contour>
    <contour>
      <point x="38" y="687" type="qcurve" smooth="yes"/>
      <point x="38" y="1039"/>
      <point x="274" y="1519"/>
      <point x="501" y="1519" type="qcurve" smooth="yes"/>
      <point x="729" y="1519"/>
      <point x="974" y="1039"/>
      <point x="974" y="687" type="qcurve" smooth="yes"/>
      <point x="974" y="337"/>
      <point x="728" y="-147"/>
      <point x="501" y="-147" type="qcurve" smooth="yes"/>
      <point x="273" y="-147"/>
      <point x="38" y="337"/>
    </contour>
  </outline>
</glyph>
<glyph name="AE" format="2">
  <advance width="1358"/>
  <unicode hex="00C6"/>
  <anchor x="740" y="1456" name="top"/>
  <outline>
    <contour>
      <point x="-15" y="0" type="line"/>
      <point x="677" y="1456" type="line"/>
      <point x="1280" y="1456" type="line"/>
      <point x="1280" y="1298" type="line"/>
      <point x="689" y="1298" type="line"/>
      <point x="689" y="158" type="line"/>
      <point x="1290" y="158" type="line"/>
      <point x="1290" y="0" type="line"/>
      <point x="682" y="0" type="line"/>
      <point x="682" y="1452" type="line"/>
      <point x="-7" y="0" type="line"/>
    </contour>
    <contour>
      <point x="684" y="672" type="line"/>
      <point x="684" y="830" type="line"/>
      <point x="1188" y="830" type="line"/>
      <point x="1188" y="672" type="line"/>
    </contour>
    <contour>
      <point x="157" y="353" type="line"/>
      <point x="240" y="528" type="line"/>
      <point x="684" y="528" type="line"/>
      <point x="684" y="353" type="line"/>
    </contour>
  </outline>
</glyph>
<glyph name="multiply" format="2">
  <advance width="1024"/>
  <unicode hex="00D7"/>
  <outline>
    <contour>
      <point x="233" y="377" type="line"/>
      <point x="228" y="381" type="line"/>
      <point x="788" y="957" type="line"/>
      <point x="793" y="952" type="line"/>
    </contour>
    <contour>
      <point x="792" y="377" type="line"/>
      <point x="221" y="953" type="line"/>
      <point x="226" y="958" type="line"/>
      <point x="797" y="381" type="line"/>
    </contour>
  </outline>
</glyph>
<glyph name="acutecomb" format="2">
	<unicode hex="0301"/>
	<outline>
		<contour>
			<point x="-171" y="1301" type="line"/>
			<point x="163" y="1550" type="line"/>
			<point x="167" y="1546" type="line"/>
			<point x="-76" y="1215" type="line"/>
		</contour>
	</outline>
	<anchor name="_top" x="0" y="1052"/>
	<anchor name="top" x="0" y="1600"/>
</glyph>
<glyph name="tildecomb" format="2">
  <unicode hex="0303"/>
  <anchor x="0" y="1052" name="_top"/>
  <anchor x="0" y="1487" name="top"/>
  <outline>
    <contour>
      <point x="-305" y="1218" type="line"/>
      <point x="-282" y="1281"/>
      <point x="-204" y="1354"/>
      <point x="-144" y="1354" type="qcurve" smooth="yes"/>
      <point x="-93" y="1354"/>
      <point x="-29" y="1318"/>
      <point x="2" y="1290" type="qcurve" smooth="yes"/>
      <point x="32" y="1263"/>
      <point x="102" y="1222"/>
      <point x="149" y="1222" type="qcurve" smooth="yes"/>
      <point x="203" y="1222"/>
      <point x="279" y="1281"/>
      <point x="297" y="1352" type="qcurve"/>
      <point x="300" y="1349" type="line"/>
      <point x="283" y="1278"/>
      <point x="207" y="1215"/>
      <point x="149" y="1215" type="qcurve" smooth="yes"/>
      <point x="99" y="1215"/>
      <point x="26" y="1258"/>
      <point x="-2" y="1284" type="qcurve" smooth="yes"/>
      <point x="-30" y="1310"/>
      <point x="-96" y="1347"/>
      <point x="-144" y="1347" type="qcurve" smooth="yes"/>
      <point x="-203" y="1347"/>
      <point x="-280" y="1276"/>
      <point x="-302" y="1215" type="qcurve"/>
    </contour>
  </outline>
</glyph>
<glyph name="dieresisbelowcomb" format="2">
  <unicode hex="0324"/>
  <anchor x="0" y="0" name="_bottom"/>
  <anchor x="0" y="-421" name="bottom"/>
  <outline>
    <contour>
      <point x="-160" y="-217" type="qcurve" smooth="yes"/>
      <point x="-160" y="-206"/>
      <point x="-148" y="-194"/>
      <point x="-137" y="-194" type="qcurve" smooth="yes"/>
      <point x="-126" y="-194"/>
      <point x="-114" y="-207"/>
      <point x="-114" y="-217" type="qcurve" smooth="yes"/>
      <point x="-114" y="-228"/>
      <point x="-126" y="-239"/>
      <point x="-137" y="-239" type="qcurve" smooth="yes"/>
      <point x="-148" y="-239"/>
      <point x="-160" y="-227"/>
    </contour>
    <contour>
      <point x="114" y="-217" type="qcurve" smooth="yes"/>
      <point x="114" y="-206"/>
      <point x="126" y="-194"/>
      <point x="137" y="-194" type="qcurve" smooth="yes"/>
      <point x="148" y="-194"/>
      <point x="160" y="-207"/>
      <point x="160" y="-217" type="qcurve" smooth="yes"/>
      <point x="160" y="-228"/>
      <point x="148" y="-239"/>
      <point x="137" y="-239" type="qcurve" smooth="yes"/>
      <point x="126" y="-239"/>
      <point x="114" y="-227"/>
    </contour>
  </outline>
</glyph>
<glyph name="lownumeralsign" format="2">
	<unicode hex="0375"/>
	<advance width="423"/>
	<outline>
		<contour>
			<point x="110" y="285" type="line"/>
			<point x="233" y="255" type="line"/>
			<point x="144" y="-198" type="line"/>
			<point x="137" y="-197" type="line"/>
		</contour>
	</outline>
</glyph>
<glyph name="Gamma" format="2">
	<unicode hex="0393"/>
	<advance width="892"/>
	<outline>
		<contour>
			<point x="170" y="0" type="line"/>
			<point x="170" y="1456" type="line"/>
			<point x="867" y="1456" type="line"/>
			<point x="867" y="1298" type="line"/>
			<point x="177" y="1298" type="line"/>
			<point x="177" y="0" type="line"/>
		</contour>
	</outline>
	<anchor name="top" x="526" y="1456"/>
	<anchor name="center" x="174" y="708"/>
</glyph>
<glyph name="sigma" format="2">
	<unicode hex="03C3"/>
	<advance width="822"/>
	<outline>
		<contour>
			<point x="399" y="-30" type="qcurve" smooth="yes"/>
			<point x="247" y="-30"/>
			<point x="85" y="250"/>
			<point x="85" y="491" type="qcurve" smooth="yes"/>
			<point x="85" y="522" type="line" smooth="yes"/>
			<point x="85" y="774"/>
			<point x="279" y="1052"/>
			<point x="507" y="1052" type="qcurve"/>
			<point x="772" y="1052" type="line"/>
			<point x="772" y="900" type="line"/>
			<point x="664" y="900" type="line"/>
			<point x="664" y="913" type="line"/>
			<point x="690" y="881"/>
			<point x="711" y="683"/>
			<point x="711" y="526" type="qcurve" smooth="yes"/>
			<point x="711" y="495" type="line" smooth="yes"/>
			<point x="711" y="254"/>
			<point x="550" y="-30"/>
		</contour>
		<contour>
			<point x="398" y="122" type="qcurve" smooth="yes"/>
			<point x="551" y="122"/>
			<point x="704" y="337"/>
			<point x="704" y="495" type="qcurve" smooth="yes"/>
			<point x="704" y="526" type="line" smooth="yes"/>
			<point x="704" y="678"/>
			<point x="594" y="865"/>
			<point x="508" y="899" type="qcurve"/>
			<point x="281" y="906"/>
			<point x="92" y="671"/>
			<point x="92" y="522" type="qcurve" smooth="yes"/>
			<point x="92" y="491" type="line" smooth="yes"/>
			<point x="92" y="333"/>
			<point x="245" y="122"/>
		</contour>
	</outline>
</glyph>
<glyph name="phi" format="2">
  <advance width="900"/>
  <unicode hex="03C6"/>
  <outline>
    <contour>
      <point x="448" y="-416" type="line"/>
      <point x="448" y="44" type="line"/>
      <point x="448" y="85" type="line"/>
      <point x="448" y="981" type="line"/>
      <point x="448" y="1022" type="line"/>
      <point x="448" y="1456" type="line"/>
      <point x="455" y="1456" type="line"/>
      <point x="455" y="1022" type="line"/>
      <point x="455" y="979" type="line"/>
      <point x="455" y="85" type="line"/>
      <point x="455" y="44" type="line"/>
      <point x="455" y="-416" type="line"/>
    </contour>
    <contour>
      <point x="449" y="-32" type="line" smooth="yes"/>
      <point x="276" y="-32"/>
      <point x="85" y="267"/>
      <point x="85" y="510" type="qcurve" smooth="yes"/>
      <point x="85" y="542" type="line" smooth="yes"/>
      <point x="85" y="785"/>
      <point x="269" y="1082"/>
      <point x="449" y="1082" type="qcurve" smooth="yes"/>
      <point x="454" y="1082" type="line" smooth="yes"/>
      <point x="631" y="1082"/>
      <point x="815" y="785"/>
      <point x="815" y="542" type="qcurve" smooth="yes"/>
      <point x="815" y="510" type="line" smooth="yes"/>
      <point x="815" y="267"/>
      <point x="628" y="-32"/>
      <point x="454" y="-32" type="qcurve" smooth="yes"/>
    </contour>
    <contour>
      <point x="449" y="120" type="qcurve" smooth="yes"/>
      <point x="454" y="120" type="line" smooth="yes"/>
      <point x="648" y="120"/>
      <point x="808" y="342"/>
      <point x="808" y="510" type="qcurve" smooth="yes"/>
      <point x="808" y="542" type="line" smooth="yes"/>
      <point x="808" y="710"/>
      <point x="649" y="930"/>
      <point x="454" y="930" type="qcurve" smooth="yes"/>
      <point x="449" y="930" type="line" smooth="yes"/>
      <point x="251" y="930"/>
      <point x="92" y="710"/>
      <point x="92" y="542" type="qcurve" smooth="yes"/>
      <point x="92" y="510" type="line" smooth="yes"/>
      <point x="92" y="342"/>
      <point x="255" y="120"/>
    </contour>
  </outline>
</glyph>
<glyph name="Nje" format="2">
	<unicode hex="040A"/>
	<advance width="1469"/>
	<outline>
		<contour>
			<point x="170" y="0" type="line"/>
			<point x="177" y="0" type="line"/>
			<point x="177" y="1456" type="line"/>
			<point x="170" y="1456" type="line"/>
		</contour>
		<contour>
			<point x="811" y="0" type="line"/>
			<point x="1108" y="0" type="line" smooth="yes"/>
			<point x="1288" y="0"/>
			<point x="1419" y="241"/>
			<point x="1419" y="437" type="qcurve" smooth="yes"/>
			<point x="1419" y="633"/>
			<point x="1289" y="870"/>
			<point x="1108" y="870" type="qcurve" smooth="yes"/>
			<point x="815" y="870" type="line"/>
			<point x="815" y="712" type="line"/>
			<point x="1108" y="712" type="line" smooth="yes"/>
			<point x="1276" y="712"/>
			<point x="1412" y="554"/>
			<point x="1412" y="437" type="qcurve" smooth="yes"/>
			<point x="1412" y="320"/>
			<point x="1276" y="158"/>
			<point x="1108" y="158" type="qcurve" smooth="yes"/>
			<point x="818" y="158" type="line"/>
			<point x="818" y="1456" type="line"/>
			<point x="811" y="1456" type="line"/>
		</contour>
		<contour>
			<point x="175" y="712" type="line"/>
			<point x="814" y="712" type="line"/>
			<point x="814" y="870" type="line"/>
			<point x="175" y="870" type="line"/>
		</contour>
	</outline>
</glyph>
<glyph name="El" format="2">
	<unicode hex="041B"/>
	<advance width="1087"/>
	<outline>
		<contour>
			<point x="336" y="1456" type="line"/>
			<point x="917" y="1456" type="line"/>
			<point x="917" y="0" type="line"/>
			<point x="910" y="0" type="line"/>
			<point x="910" y="1298" type="line"/>
			<point x="334" y="1298" type="line"/>
			<point x="294" y="554" type="line" smooth="yes"/>
			<point x="278" y="258"/>
			<point x="213" y="-30"/>
			<point x="119" y="-30" type="qcurve" smooth="yes"/>
			<point x="95" y="-30"/>
			<point x="39" y="-23"/>
			<point x="10" y="-13" type="qcurve"/>
			<point x="10" y="151" type="line"/>
			<point x="34" y="143"/>
			<point x="74" y="138"/>
			<point x="95" y="138" type="qcurve" smooth="yes"/>
			<point x="197" y="138"/>
			<point x="275" y="336"/>
			<point x="287" y="559" type="qcurve" smooth="yes"/>
		</contour>
	</outline>
</glyph>
<glyph name="Hard" format="2">
	<unicode hex="042A"/>
	<advance width="959"/>
	<outline>
		<contour>
			<point x="299" y="0" type="line"/>
			<point x="299" y="1298" type="line"/>
			<point x="24" y="1298" type="line"/>
			<point x="24" y="1456" type="line"/>
			<point x="306" y="1456" type="line"/>
			<point x="306" y="158" type="line"/>
			<point x="596" y="158" type="line" smooth="yes"/>
			<point x="766" y="158"/>
			<point x="902" y="325"/>
			<point x="902" y="445" type="qcurve" smooth="yes"/>
			<point x="902" y="565"/>
			<point x="766" y="728"/>
			<point x="596" y="728" type="qcurve" smooth="yes"/>
			<point x="304" y="728" type="line"/>
			<point x="304" y="886" type="line"/>
			<point x="596" y="886" type="line" smooth="yes"/>
			<point x="766" y="886"/>
			<point x="909" y="645"/>
			<point x="909" y="445" type="qcurve" smooth="yes"/>
			<point x="909" y="245"/>
			<point x="766" y="0"/>
			<point x="596" y="0" type="qcurve" smooth="yes"/>
		</contour>
	</outline>
</glyph>
<glyph name="Ya" format="2">
	<unicode hex="042F"/>
	<advance width="880"/>
	<outline>
		<contour>
			<point x="40" y="0" type="line"/>
			<point x="404" y="672" type="line"/>
			<point x="411" y="671" type="line"/>
			<point x="47" y="0" type="line"/>
		</contour>
		<contour>
			<point x="703" y="0" type="line"/>
			<point x="703" y="1300" type="line"/>
			<point x="421" y="1300" type="line" smooth="yes"/>
			<point x="255" y="1300"/>
			<point x="125" y="1144"/>
			<point x="125" y="1028" type="qcurve" smooth="yes"/>
			<point x="125" y="912"/>
			<point x="255" y="750"/>
			<point x="421" y="750" type="qcurve" smooth="yes"/>
			<point x="705" y="750" type="line"/>
			<point x="705" y="594" type="line"/>
			<point x="368" y="594" type="line"/>
			<point x="363" y="604" type="line"/>
			<point x="251" y="629"/>
			<point x="118" y="858"/>
			<point x="118" y="1028" type="qcurve" smooth="yes"/>
			<point x="118" y="1222"/>
			<point x="269" y="1456"/>
			<point x="421" y="1456" type="qcurve" smooth="yes"/>
			<point x="710" y="1456" type="line"/>
			<point x="710" y="0" type="line"/>
		</contour>
	</outline>
	<anchor name="top" x="377" y="1456"/>
</glyph>
<glyph name="te" format="2">
	<unicode hex="0442"/>
	<advance width="724"/>
	<outline>
		<contour>
			<point x="30" y="907" type="line"/>
			<point x="30" y="1052" type="line"/>
			<point x="694" y="1052" type="line"/>
			<point x="694" y="907" type="line"/>
		</contour>
		<contour>
			<point x="360" y="0" type="line"/>
			<point x="360" y="977" type="line"/>
			<point x="367" y="977" type="line"/>
			<point x="367" y="0" type="line"/>
		</contour>
	</outline>
	<anchor name="cy_descender" x="362" y="0"/>
</glyph>
<glyph name="ya" format="2">
	<unicode hex="044F"/>
	<advance width="825"/>
	<outline>
		<contour>
			<point x="85" y="0" type="line"/>
			<point x="397" y="444" type="line"/>
			<point x="400" y="437" type="line"/>
			<point x="93" y="0" type="line"/>
		</contour>
		<contour>
			<point x="185" y="716" type="qcurve" smooth="yes"/>
			<point x="185" y="869"/>
			<point x="295" y="1052"/>
			<point x="407" y="1052" type="qcurve" smooth="yes"/>
			<point x="677" y="1052" type="line"/>
			<point x="677" y="0" type="line"/>
			<point x="670" y="0" type="line"/>
			<point x="670" y="907" type="line"/>
			<point x="407" y="907" type="line" smooth="yes"/>
			<point x="288" y="907"/>
			<point x="192" y="799"/>
			<point x="192" y="716" type="qcurve" smooth="yes"/>
			<point x="192" y="633"/>
			<point x="287" y="529"/>
			<point x="407" y="529" type="qcurve" smooth="yes"/>
			<point x="673" y="529" type="line"/>
			<point x="673" y="384" type="line"/>
			<point x="425" y="384" type="line"/>
			<point x="407" y="396" type="line"/>
			<point x="289" y="396"/>
			<point x="185" y="569"/>
		</contour>
	</outline>
	<anchor name="top" x="500" y="1052"/>
</glyph>
<glyph name="gheup" format="2">
	<unicode hex="0491"/>
	<advance width="685"/>
	<outline>
		<contour>
			<point x="148" y="1052" type="line"/>
			<point x="648" y="1052" type="line"/>
			<point x="648" y="1322" type="line"/>
			<point x="655" y="1322" type="line"/>
			<point x="655" y="907" type="line"/>
			<point x="155" y="907" type="line"/>
			<point x="155" y="0" type="line"/>
			<point x="148" y="0" type="line"/>
		</contour>
	</outline>
</glyph>
<glyph name="cheverticalstroke-cy" format="2">
	<unicode hex="04B9"/>
	<advance width="757"/>
	<outline>
		<contour>
			<point x="371" y="852" type="line"/>
			<point x="371" y="200" type="line"/>
			<point x="364" y="200" type="line"/>
			<point x="364" y="852" type="line"/>
		</contour>
		<contour>
			<point x="132" y="773" type="line" smooth="yes"/>
			<point x="132" y="642"/>
			<point x="231" y="542"/>
			<point x="354" y="542" type="qcurve" smooth="yes"/>
			<point x="443" y="542"/>
			<point x="561" y="558"/>
			<point x="604" y="569" type="qcurve"/>
			<point x="604" y="424" type="line"/>
			<point x="575" y="415"/>
			<point x="441" y="396"/>
			<point x="317" y="396" type="qcurve" smooth="yes"/>
			<point x="244" y="396"/>
			<point x="125" y="583"/>
			<point x="125" y="773" type="qcurve" smooth="yes"/>
			<point x="125" y="1052" type="line"/>
			<point x="132" y="1052" type="line"/>
		</contour>
		<contour>
			<point x="602" y="0" type="line"/>
			<point x="602" y="1052" type="line"/>
			<point x="609" y="1052" type="line"/>
			<point x="609" y="0" type="line"/>
		</contour>
	</outline>
</glyph>
<glyph name="horizontalbar" format="2">
	<unicode hex="2015"/>
	<advance width="401"/>
	<outline>
		<contour>
			<point x="20" y="626" type="line"/>
			<point x="20" y="792" type="line"/>
			<point x="370" y="792" type="line"/>
			<point x="370" y="626" type="line"/>
		</contour>
	</outline>
	<anchor name="_center" x="200" y="708"/>
</glyph>
<glyph name="dagger" format="2">
	<unicode hex="2020"/>
	<advance width="855"/>
	<outline>
		<contour>
			<point x="75" y="852" type="line"/>
			<point x="75" y="1025" type="line"/>
			<point x="780" y="1025" type="line"/>
			<point x="780" y="852" type="line"/>
		</contour>
		<contour>
			<point x="422" y="8" type="line"/>
			<point x="422" y="748" type="line"/>
			<point x="422" y="905" type="line"/>
			<point x="422" y="1508" type="line"/>
			<point x="429" y="1508" type="line"/>
			<point x="429" y="905" type="line"/>
			<point x="429" y="748" type="line"/>
			<point x="432" y="8" type="line"/>
			<point x="432" y="-274" type="line"/>
			<point x="427" y="-415"/>
			<point x="427" y="-416"/>
			<point x="422" y="-274" type="qcurve"/>
		</contour>
	</outline>
</glyph>
<glyph name="uni20B2" format="2">
	<unicode hex="20B2"/>
	<advance width="688"/>
	<outline>
		<contour>
			<point x="367" y="-190" type="line"/>
			<point x="367" y="57" type="line"/>
			<point x="367" y="71" type="line"/>
			<point x="367" y="708" type="line"/>
			<point x="374" y="708" type="line"/>
			<point x="374" y="70" type="line"/>
			<point x="374" y="60" type="line"/>
			<point x="374" y="-190" type="line"/>
		</contour>
		<contour>
			<point x="367" y="708" type="line"/>
			<point x="367" y="1392" type="line"/>
			<point x="367" y="1402" type="line"/>
			<point x="367" y="1632" type="line"/>
			<point x="374" y="1632" type="line"/>
			<point x="374" y="1402" type="line"/>
			<point x="374" y="1389" type="line"/>
			<point x="374" y="708" type="line"/>
		</contour>
		<contour>
			<point x="643" y="745" type="line"/>
			<point x="643" y="452" type="line" smooth="yes"/>
			<point x="643" y="232"/>
			<point x="507" y="-5"/>
			<point x="384" y="-5" type="qcurve" smooth="yes"/>
			<point x="246" y="-5"/>
			<point x="94" y="278"/>
			<point x="94" y="542" type="qcurve" smooth="yes"/>
			<point x="94" y="897" type="line" smooth="yes"/>
			<point x="94" y="1180"/>
			<point x="238" y="1485"/>
			<point x="370" y="1485" type="qcurve" smooth="yes"/>
			<point x="482" y="1485"/>
			<point x="623" y="1263"/>
			<point x="623" y="1051" type="qcurve" smooth="yes"/>
			<point x="623" y="1011" type="line"/>
			<point x="616" y="1011" type="line"/>
			<point x="616" y="1051" type="line" smooth="yes"/>
			<point x="616" y="1171"/>
			<point x="494" y="1328"/>
			<point x="370" y="1328" type="qcurve" smooth="yes"/>
			<point x="240" y="1328"/>
			<point x="101" y="1106"/>
			<point x="101" y="899" type="qcurve" smooth="yes"/>
			<point x="101" y="544" type="line" smooth="yes"/>
			<point x="101" y="356"/>
			<point x="255" y="153"/>
			<point x="384" y="153" type="qcurve" smooth="yes"/>
			<point x="513" y="153"/>
			<point x="636" y="299"/>
			<point x="636" y="433" type="qcurve" smooth="yes"/>
			<point x="636" y="589" type="line"/>
			<point x="499" y="589" type="line"/>
			<point x="499" y="745" type="line"/>
		</contour>
	</outline>
</glyph>
<glyph name="approxequal" format="2">
  <advance width="1024"/>
  <unicode hex="2248"/>
  <outline>
    <contour>
      <point x="160" y="706" type="qcurve"/>
      <point x="154" y="716" type="line"/>
      <point x="183" y="773"/>
      <point x="286" y="841"/>
      <point x="341" y="841" type="qcurve" smooth="yes"/>
      <point x="399" y="841"/>
      <point x="466" y="805"/>
      <point x="524" y="769" type="qcurve" smooth="yes"/>
      <point x="575" y="737"/>
      <point x="643" y="698"/>
      <point x="699" y="698" type="qcurve" smooth="yes"/>
      <point x="749" y="698"/>
      <point x="834" y="769"/>
      <point x="863" y="826" type="qcurve"/>
      <point x="870" y="816" type="line"/>
      <point x="841" y="763"/>
      <point x="752" y="691"/>
      <point x="699" y="691" type="qcurve" smooth="yes"/>
      <point x="644" y="691"/>
      <point x="572" y="732"/>
      <point x="521" y="764" type="qcurve" smooth="yes"/>
      <point x="463" y="800"/>
      <point x="399" y="834"/>
      <point x="341" y="834" type="qcurve" smooth="yes"/>
      <point x="287" y="834"/>
      <point x="189" y="766"/>
    </contour>
    <contour>
      <point x="160" y="458" type="qcurve"/>
      <point x="154" y="468" type="line"/>
      <point x="183" y="525"/>
      <point x="286" y="593"/>
      <point x="341" y="593" type="qcurve" smooth="yes"/>
      <point x="399" y="593"/>
      <point x="466" y="557"/>
      <point x="524" y="521" type="qcurve" smooth="yes"/>
      <point x="575" y="489"/>
      <point x="643" y="450"/>
      <point x="699" y="450" type="qcurve" smooth="yes"/>
      <point x="749" y="450"/>
      <point x="834" y="521"/>
      <point x="863" y="578" type="qcurve"/>
      <point x="870" y="568" type="line"/>
      <point x="841" y="515"/>
      <point x="752" y="443"/>
      <point x="699" y="443" type="qcurve" smooth="yes"/>
      <point x="644" y="443"/>
      <point x="572" y="484"/>
      <point x="521" y="516" type="qcurve" smooth="yes"/>
      <point x="463" y="552"/>
      <point x="399" y="586"/>
      <point x="341" y="586" type="qcurve" smooth="yes"/>
      <point x="287" y="586"/>
      <point x="189" y="518"/>
    </contour>
  </outline>
</glyph>
<glyph name="lessequal" format="2">
  <advance width="1024"/>
  <unicode hex="2264"/>
  <outline>
    <contour>
      <point x="748" y="380" type="line"/>
      <point x="246" y="674" type="line"/>
      <point x="246" y="680" type="line"/>
      <point x="748" y="969" type="line"/>
      <point x="748" y="961" type="line"/>
      <point x="253" y="677" type="line"/>
      <point x="748" y="388" type="line"/>
    </contour>
    <contour>
      <point x="202" y="242" type="line"/>
      <point x="202" y="249" type="line"/>
      <point x="812" y="249" type="line"/>
      <point x="812" y="242" type="line"/>
    </contour>
  </outline>
</glyph>
<glyph name="greaterequal" format="2">
  <advance width="1024"/>
  <unicode hex="2265"/>
  <outline>
    <contour>
      <point x="266" y="380" type="line"/>
      <point x="266" y="388" type="line"/>
      <point x="761" y="677" type="line"/>
      <point x="266" y="961" type="line"/>
      <point x="266" y="969" type="line"/>
      <point x="768" y="680" type="line"/>
      <point x="768" y="674" type="line"/>
    </contour>
    <contour>
      <point x="812" y="242" type="line"/>
      <point x="202" y="242" type="line"/>
      <point x="202" y="249" type="line"/>
      <point x="812" y="249" type="line"/>
    </contour>
  </outline>
</glyph>
<glyph name="breve.cyrcomb.case" format="2">
	<outline>
		<contour>
			<point x="0" y="1607" type="qcurve"/>
			<point x="73" y="1607"/>
			<point x="194" y="1779"/>
			<point x="233" y="1939" type="qcurve"/>
			<point x="382" y="1849" type="line"/>
			<point x="326" y="1716"/>
			<point x="124" y="1600"/>
			<point x="0" y="1600" type="qcurve"/>
			<point x="-124" y="1600"/>
			<point x="-326" y="1716"/>
			<point x="-382" y="1849" type="qcurve"/>
			<point x="-233" y="1939" type="line"/>
			<point x="-194" y="1779"/>
			<point x="-73" y="1607"/>
		</contour>
	</outline>
	<anchor name="_top" x="0" y="1456"/>
	<anchor name="top" x="0" y="1939"/>
</glyph>
<glyph name="breve.cyrcomb" format="2">
	<outline>
		<contour>
			<point x="0" y="1225" type="qcurve"/>
			<point x="62" y="1225"/>
			<point x="160" y="1385"/>
			<point x="190" y="1534" type="qcurve"/>
			<point x="334" y="1447" type="line"/>
			<point x="285" y="1325"/>
			<point x="112" y="1218"/>
			<point x="0" y="1218" type="qcurve"/>
			<point x="-112" y="1218"/>
			<point x="-285" y="1325"/>
			<point x="-334" y="1447" type="qcurve"/>
			<point x="-190" y="1534" type="line"/>
			<point x="-160" y="1385"/>
			<point x="-62" y="1225"/>
		</contour>
	</outline>
	<anchor name="_top" x="0" y="1052"/>
	<anchor name="top" x="0" y="1534"/>
</glyph>
<glyph name="dieresiscombstack.case" format="2">
  <anchor x="0" y="1536" name="_top"/>
  <anchor x="0" y="1632" name="top"/>
  <outline>
    <contour>
      <point x="-149" y="1623" type="qcurve" smooth="yes"/>
      <point x="-149" y="1627"/>
      <point x="-144" y="1632"/>
      <point x="-140" y="1632" type="qcurve" smooth="yes"/>
      <point x="-136" y="1632"/>
      <point x="-131" y="1627"/>
      <point x="-131" y="1623" type="qcurve" smooth="yes"/>
      <point x="-131" y="1619"/>
      <point x="-136" y="1614"/>
      <point x="-140" y="1614" type="qcurve" smooth="yes"/>
      <point x="-144" y="1614"/>
      <point x="-149" y="1619"/>
    </contour>
    <contour>
      <point x="131" y="1623" type="qcurve" smooth="yes"/>
      <point x="131" y="1627"/>
      <point x="136" y="1632"/>
      <point x="140" y="1632" type="qcurve" smooth="yes"/>
      <point x="144" y="1632"/>
      <point x="149" y="1627"/>
      <point x="149" y="1623" type="qcurve" smooth="yes"/>
      <point x="149" y="1619"/>
      <point x="144" y="1614"/>
      <point x="140" y="1614" type="qcurve" smooth="yes"/>
      <point x="136" y="1614"/>
      <point x="131" y="1619"/>
    </contour>
  </outline>
</glyph>
<glyph name="dotbelowcomb.case" format="2">
  <anchor x="0" y="0" name="_bottom"/>
  <anchor x="0" y="-203" name="bottom"/>
  <outline>
    <contour>
      <point x="-9" y="-194" type="qcurve" smooth="yes"/>
      <point x="-9" y="-190"/>
      <point x="-4" y="-185"/>
      <point x="0" y="-185" type="qcurve" smooth="yes"/>
      <point x="4" y="-185"/>
      <point x="9" y="-190"/>
      <point x="9" y="-194" type="qcurve" smooth="yes"/>
      <point x="9" y="-198"/>
      <point x="4" y="-203"/>
      <point x="0" y="-203" type="qcurve" smooth="yes"/>
      <point x="-4" y="-203"/>
      <point x="-9" y="-198"/>
    </contour>
  </outline>
</glyph>
<glyph name="el.bgr" format="2">
	<advance width="788"/>
	<outline>
		<contour>
			<point x="788" y="0" type="line"/>
			<point x="781" y="0" type="line"/>
			<point x="445" y="915" type="line" smooth="yes"/>
			<point x="430" y="955"/>
			<point x="405" y="1025"/>
			<point x="398" y="1045" type="qcurve"/>
			<point x="392" y="1045" type="line"/>
			<point x="385" y="1025"/>
			<point x="360" y="955"/>
			<point x="345" y="915" type="qcurve" smooth="yes"/>
			<point x="7" y="0" type="line"/>
			<point x="0" y="0" type="line"/>
			<point x="388" y="1052" type="line"/>
			<point x="403" y="1052" type="line"/>
		</contour>
	</outline>
</glyph>
<glyph name="hard.bgr" format="2">
	<advance width="903"/>
	<outline>
		<contour>
			<point x="320" y="351" type="qcurve" smooth="yes"/>
			<point x="320" y="907" type="line"/>
			<point x="30" y="907" type="line"/>
			<point x="30" y="1052" type="line"/>
			<point x="327" y="1052" type="line"/>
			<point x="327" y="351" type="line" smooth="yes"/>
			<point x="327" y="252"/>
			<point x="439" y="123"/>
			<point x="579" y="123" type="qcurve" smooth="yes"/>
			<point x="721" y="123"/>
			<point x="836" y="252"/>
			<point x="836" y="351" type="qcurve" smooth="yes"/>
			<point x="836" y="447"/>
			<point x="730" y="573"/>
			<point x="599" y="573" type="qcurve" smooth="yes"/>
			<point x="323" y="573" type="line"/>
			<point x="323" y="718" type="line"/>
			<point x="599" y="718" type="line" smooth="yes"/>
			<point x="737" y="718"/>
			<point x="843" y="521"/>
			<point x="843" y="351" type="qcurve" smooth="yes"/>
			<point x="843" y="177"/>
			<point x="722" y="-30"/>
			<point x="579" y="-30" type="qcurve" smooth="yes"/>
			<point x="436" y="-30"/>
			<point x="320" y="177"/>
		</contour>
	</outline>
</glyph>
<glyph name="won.rvrn" format="2">
  <advance width="1596"/>
  <outline>
    <contour>
      <point x="475" y="-10" type="line"/>
      <point x="115" y="1456" type="line"/>
      <point x="122" y="1456" type="line"/>
      <point x="448" y="124" type="line"/>
      <point x="480" y="-3" type="line"/>
      <point x="488" y="-3" type="line"/>
      <point x="515" y="124" type="line" smooth="yes"/>
      <point x="793" y="1456" type="line"/>
      <point x="809" y="1456" type="line"/>
      <point x="1095" y="124" type="line"/>
      <point x="1122" y="-3" type="line"/>
      <point x="1128" y="-3" type="line"/>
      <point x="1155" y="124" type="line" smooth="yes"/>
      <point x="1445" y="1456" type="line"/>
      <point x="1452" y="1456" type="line"/>
      <point x="1133" y="-10" type="line"/>
      <point x="1117" y="-10" type="line"/>
      <point x="833" y="1311" type="line"/>
      <point x="804" y="1449" type="line"/>
      <point x="798" y="1449" type="line"/>
      <point x="770" y="1311" type="line" smooth="yes"/>
      <point x="493" y="-10" type="line"/>
    </contour>
    <contour>
      <point x="1351" y="1007" type="line"/>
      <point x="1352" y="1007" type="line"/>
      <point x="1352" y="1017" type="line"/>
      <point x="1548" y="1019" type="line"/>
      <point x="1548" y="882" type="line"/>
      <point x="1324" y="880" type="line"/>
      <point x="1324" y="885" type="line"/>
      <point x="1324" y="885" type="line"/>
    </contour>
    <contour>
      <point x="48" y="880" type="line"/>
      <point x="48" y="1017" type="line"/>
      <point x="224" y="1017" type="line"/>
      <point x="227" y="1007" type="line"/>
      <point x="229" y="1007" type="line"/>
      <point x="258" y="885" type="line"/>
      <point x="256" y="885" type="line"/>
      <point x="258" y="880" type="line"/>
    </contour>
    <contour>
      <point x="1274" y="652" type="line"/>
      <point x="1274" y="652" type="line"/>
      <point x="1274" y="657" type="line"/>
      <point x="1509" y="659" type="line"/>
      <point x="1509" y="522" type="line"/>
      <point x="1246" y="520" type="line"/>
      <point x="1246" y="530" type="line"/>
      <point x="1246" y="530" type="line"/>
    </contour>
    <contour>
      <point x="79" y="520" type="line"/>
      <point x="79" y="657" type="line"/>
      <point x="313" y="657" type="line"/>
      <point x="314" y="652" type="line"/>
      <point x="316" y="652" type="line"/>
      <point x="346" y="530" type="line"/>
      <point x="343" y="530" type="line"/>
      <point x="346" y="520" type="line"/>
    </contour>
  </outline>
</glyph>
